<?xml version="1.0" encoding="UTF-8"?>
<svg id="Capa_1" data-name="Capa 1" xmlns="http://www.w3.org/2000/svg" version="1.1" viewBox="0 0 24 24">
  <defs>
    <style>
      .cls-1 {
        fill: #e6e6e6;
      }

      .cls-1, .cls-2 {
        stroke-width: 0px;
      }

      .cls-2 {
        fill: #ff7091;
      }
    </style>
  </defs>
  <rect class="cls-1" width="24" height="24"/>
  <g>
    <path class="cls-2" d="M15.1,4.1s7.5,1,6.6,9.6c0,0-4.2,1-4.8-1.4,0,0,1.2,1,3.3.1,0,0-3.2-.2-3.4-1.3,0,0,1.7.4,3.3-1.2,0,0-3.4.9-4,0,0,0,1.6-.4,2.1-2.4,0,0-1.7,2-3,2,0,0,1.8-2.2-.2-5.4Z"/>
    <path class="cls-2" d="M14.7,5c-1-2.5-8.8-.8-8.8-.8l1.6,1.3c-4,0-4.4-2.3-4.4-2.3,0,3.4,3.3,3.3,5.9,3.2,2.6-.1,3.1.7,3.1.7-8.2-1-8.3,3.4-8.3,3.4,2.3-3.7,5.9-2.9,5.9-2.9,1.2,0,1.9,1.3,4,1.2,1.8-.1,2.1-1.3,1.1-3.8ZM8.7,5.6c-.3,0-.5-.2-.5-.5s.2-.5.5-.5.5.2.5.5-.2.5-.5.5Z"/>
    <path class="cls-2" d="M6.7,7s-3.1,1.5-4.4-.4c.7.5,1.5,1,4.4.4Z"/>
    <path class="cls-2" d="M21.2,14.5s-.1,1.7-1.1,2.8c0,0-3.7-2.1-3.6-2.6,0,0,.4-.8.4-1.2,0,0,1.5,2,4.4,1Z"/>
    <path class="cls-2" d="M19.6,17.8s-1.1,1.3-2,1.9c0,0-2.4-3.1-2.3-3.4s.7-.5.9-.9c1,1.3,1.6,1.6,3.4,2.4Z"/>
    <path class="cls-2" d="M16.8,20s-1,.6-2.5.7c0,0-.4-2.9-.9-3.2,0,0,.8-.2,1.3-.7l2.1,3.1Z"/>
    <path class="cls-2" d="M12.6,17.7s.9,1.4.9,3c0,0-1.1.4-2.9-.2,0,0,1.2-1.1.6-2.7,0,0,1,0,1.4-.1Z"/>
    <path class="cls-2" d="M10.6,19s1.2-2.9-6-3.9c0,0,1.4,6.5,6,4.2,0,0-2.7-.4-3.3-1.3,0,0,.6-.3,2.3.5,0,0-1.7-1.9-2.4-2.1,0,0,2.5.9,3.4,2.6Z"/>
    <path class="cls-2" d="M8.7,8.1s-3.5,1-2.7,4.8c0,0-1.9-4.3,2.7-4.8Z"/>
    <path class="cls-2" d="M10.5,8.5s-2.1.3-3.5,2.5c0,0,1.1-3.4,3.5-2.5Z"/>
    <path class="cls-2" d="M11.7,9.1s-3.5,1.2-3,4.4c0,0-1.2-4.8,3-4.4Z"/>
    <path class="cls-2" d="M13.2,9.5s-2.7,1.2-2.6,3.8c0,0-1-4,2.6-3.8Z"/>
    <path class="cls-2" d="M14.9,9.8s-4,1.6-1.7,6.6c0,0-3.9-5.5,1.7-6.6Z"/>
    <path class="cls-2" d="M13.4,13.4s0-3,2.2-3c0,0,1.2.4,0,1.1,0,0-1.4,0-2.2,1.9Z"/>
    <path class="cls-2" d="M14.2,15.9s.3-1.3,1.4-1.3c0,0,.6.3,0,.7,0,.1-1,0-1.4.7Z"/>
    <path class="cls-2" d="M14,14.7s-.4-2.3,1.9-2.4c0,0,1.2.3,0,1,0,.2-1.2-.2-2,1.4Z"/>
  </g>
</svg>
