<?xml version="1.0" encoding="UTF-8"?>
<svg id="Capa_1" data-name="Capa 1" xmlns="http://www.w3.org/2000/svg" viewBox="0 0 24 24">
  <defs>
    <style>
      .cls-1 {
        fill: #ff7094;
      }

      .cls-1, .cls-2 {
        stroke-width: 0px;
      }

      .cls-2 {
        fill: none; /* Cambiar el fondo a transparente */
      }
    </style>
  </defs>
  <rect class="cls-2" width="24" height="24"/>
  <g>
    <path class="cls-1" d="M8.95,4.08S1.54,5.48,2.42,14.07c0,0,4.05.57,4.65-1.79,0,0-1.21,1.03-3.28.14,0,0,3.19-.2,3.44-1.35,0,0-1.73.4-3.32-1.21,0,0,3.4.92,3.97,0,0,0-1.6-.38-2.07-2.37,0,0,1.75,1.95,2.96,2,0,0-1.77-2.18.17-5.41Z"/>
    <path class="cls-1" d="M10.38,8.78c2.07.14,2.72-1.16,3.95-1.19,0,0,3.64-.79,5.89,2.87,0,0-.06-4.39-8.27-3.44,0,0,.48-.79,3.06-.69,2.58.1,5.79.23,5.88-3.19,0,0-.35,2.25-4.4,2.29l1.61-1.28s-7.85-1.72-8.83.83c-.98,2.55-.71,3.68,1.11,3.8ZM14.79,5.12c0-.27.22-.49.49-.49s.49.22.49.49c0,.27-.22.49-.49.49s-.49-.22-.49-.49Z"/>
    <path class="cls-1" d="M17.34,7.03s3.14,1.51,4.43-.35c-.69.5-1.47.95-4.43.35Z"/>
    <path class="cls-1" d="M2.53,14.48s.58,1.92,1.58,2.96c.21.24,3.89-1.79,3.38-2.79,0,0-.38-.84-.38-1.19-.46-.33-2.38,1.52-4.59,1.02Z"/>
    <path class="cls-1" d="M4.44,17.78s1.29,1.49,2.26,2.04c0,0,2.54-2.8,2.43-3.09s-1.07-.91-1.27-1.38c-1.45.97-1.75,1.52-3.42,2.43Z"/>
    <path class="cls-1" d="M6.93,20s1.2.59,3.12.73c0,0,.51-2.86,1.16-3.18,0,0-.97-.21-1.65-.67l-2.63,3.12Z"/>
    <path class="cls-1" d="M11.36,17.72s-.94,1.39-.9,3c0,0,1.13.37,2.94-.16,0,0-1.23-1.09-.64-2.72,0,0-.97-.01-1.4-.12Z"/>
    <path class="cls-1" d="M13.4,19.01s-1.23-2.88,6.02-3.92c0,0-1.4,6.5-6.02,4.2,0,0,2.68-.36,3.33-1.32,0,0-.63-.32-2.33.54,0,0,1.71-1.88,2.38-2.15,0,0-2.47.88-3.37,2.65Z"/>
    <path class="cls-1" d="M15.29,8.14s3.47,1.05,2.75,4.85c0,0,1.87-4.31-2.75-4.85Z"/>
  </g>
</svg>