<svg id="ew4JCySKmdM1" xmlns="http://www.w3.org/2000/svg" xmlns:xlink="http://www.w3.org/1999/xlink" viewBox="0 0 576 512" shape-rendering="geometricPrecision" text-rendering="geometricPrecision"><path d="M384,264.08v-132.1c0-12.7-5.17-25-14.17-33.99L285.94,14.1c-9-9-21.2-14.1-33.89-14.1L47.99,0C21.5,0.1,0,21.6,0,48.09v415.92C0,490.5,21.5,512,47.99,512h287.94c26.5,0,48.07-21.5,48.07-47.99v-103.94h-48v103.94h-288.01v-415.92h159.97v103.98c0,13.3,10.7,23.99,24,23.99h104.04v88.01" transform="translate(.244157 0)"/><path d="M36.53241,238.916691C15.291687,217.140482,-24.718455,181.44,-24.718455,181.44c-24.72758-23.955469-24.812291-23.955469,0-47.565946L36.53241,76.266691c8.792119-7.707008,20.52-2.18897,20.52,8.45v49.157363h238.114789c8.404642,0,15.96,5.640885,15.96,12.809936c0,0,0,11.024587,0,20.783562c0,7.505205-7.351242,13.972448-15.96,13.972448h-237.147199c0,7.949327,0,34.124529,0,48.749327c0,8.45-10.787136,17.210215-21.48759,8.727364Z" transform="matrix(-1 0 0-1 503.371356 470.96122)"/></svg>
